<mxfile host="app.diagrams.net" modified="2024-07-12T09:15:40.116Z" agent="Mozilla/5.0 (X11; Linux x86_64) AppleWebKit/537.36 (KHTML, like Gecko) Chrome/126.0.0.0 Safari/537.36" version="24.6.5" etag="GuQO-2LQyAcSlcWoMfuH" type="github">
  <diagram name="Page-1" id="G7Wa4pN-BO5swfP2vLP7">
    <mxGraphModel>
      <root>
        <mxCell id="0" />
        <mxCell id="1" parent="0" />
      </root>
    </mxGraphModel>
  </diagram>
</mxfile>
